<svg width="183" height="34" viewBox="0 0 183 34" fill="none" xmlns="http://www.w3.org/2000/svg">
<path d="M18.7336 27.5531C18.7336 27.5531 18.7151 27.5613 18.7144 27.5716C17.2352 27.8311 15.7635 27.8114 14.2397 27.4515C14.1566 27.3516 14.1337 27.2686 14.115 27.1422C14.2429 25.991 14.2429 24.8512 14.5123 23.781C15.525 19.7579 17.962 16.9217 21.7264 15.2695C23.3871 14.5406 25.1404 14.293 26.9723 14.2982C27.0346 14.3092 27.0605 14.3064 27.0863 14.3036C27.0863 14.3036 27.0874 14.2944 27.0782 14.3262C27.0847 14.3976 27.1003 14.4372 27.1159 14.4769C27.3804 15.9065 27.4955 17.3406 27.2356 18.829C27.2044 18.899 27.1758 18.9254 27.0889 18.9569C26.4804 18.9917 25.9302 19.0213 25.349 19.044C25.2769 19.0463 25.2358 19.0554 25.1594 19.0609C25.0348 19.0821 24.9457 19.107 24.8356 19.1211C24.7876 19.1252 24.7607 19.1399 24.7012 19.1529C24.6106 19.177 24.5525 19.2029 24.4718 19.2215C24.4213 19.2277 24.3934 19.2411 24.3309 19.253C22.4383 19.8251 20.9502 20.8946 19.9081 22.6044C19.8672 22.663 19.8492 22.71 19.8051 22.7761C19.7038 22.9494 19.6287 23.1037 19.5322 23.272C19.4968 23.3348 19.4829 23.3834 19.4434 23.4537C19.2858 23.8713 19.1536 24.2673 19.0058 24.689C18.9816 24.7533 18.973 24.7921 18.9479 24.8615C18.8655 25.7791 18.7995 26.6661 18.7336 27.5531Z" fill="#1F295A"/>
<path d="M27.1734 14.1162C25.9148 9.78464 21.9001 6.54163 17.021 6.54163C11.1038 6.54163 6.45783 11.3115 6.45783 17.0082C6.45783 21.8284 9.78399 25.985 14.392 27.15C14.3918 27.1804 14.3917 27.2108 14.3917 27.2412C14.3917 29.7132 15.0757 32.0256 16.2649 34C7.21534 33.6047 0 26.1485 0 17.0082C0 7.61485 7.62056 0 17.021 0C26.0163 0 33.3819 6.97271 34 15.8043C32.0917 14.7264 29.8868 14.1112 27.538 14.1112C27.4161 14.1112 27.2945 14.1129 27.1734 14.1162Z" fill="#FBB321"/>
<path d="M18.8204 27.3247C23.322 26.5636 26.7817 22.9949 27.4622 18.5972C27.4875 18.597 27.5127 18.5969 27.538 18.5969C29.8962 18.5969 32.0133 19.5168 33.5705 21.0004C32.1166 27.0403 27.4373 31.8251 21.4551 33.4336C19.8423 31.8723 18.8433 29.7009 18.8204 27.3247Z" fill="#FBB321"/>
<path d="M50.4841 24.388C48.4838 25.1112 46.5139 25.1363 44.5873 24.6762C42.4534 24.1665 40.8629 22.8669 39.9302 20.8214C38.8352 18.4196 38.7337 15.9308 39.4372 13.445C40.5556 9.49341 44.1682 7.41823 48.4461 8.14265C52.5553 8.83854 54.9229 11.6419 55.0305 15.847C55.0933 18.3021 54.679 20.5952 52.998 22.6519C53.7533 23.1006 54.5256 23.4169 55.0969 23.9491C55.4789 24.305 55.5752 24.9677 55.7994 25.4931C55.2532 25.6815 54.6383 26.1256 54.1763 26.0014C53.3816 25.7877 52.696 25.1919 51.9372 24.8112C51.511 24.5975 51.0298 24.4935 50.4841 24.388ZM50.1953 12.0043C47.4819 9.69029 44.039 10.5003 42.8526 13.7852C42.0796 15.9258 42.202 18.0752 43.2478 20.1122C44.215 21.9959 46.8074 22.8406 48.4414 21.8098C47.898 21.5029 47.3203 21.2828 46.8881 20.8988C46.5415 20.5908 46.3717 20.084 46.1234 19.6654C46.6402 19.5515 47.2274 19.2246 47.6594 19.3673C48.6026 19.679 49.4668 20.2295 50.3531 20.6772C52.141 18.3273 52.1132 14.6922 50.1953 12.0043Z" fill="#242C58"/>
<path d="M165.933 23.2932C163.101 24.9567 160.152 25.4109 157.092 24.5829C152.806 23.4225 150.622 18.934 151.766 14.0858C152.905 9.25794 157.097 7.59546 161.541 8.16136C163.243 8.37818 164.753 9.03593 165.837 10.4417C166.067 10.7409 166.271 11.0797 166.405 11.4314C166.731 12.2876 166.821 13.1431 165.842 13.6491C164.867 14.1535 164.095 13.7867 163.563 12.9025C162.74 11.5325 161.652 10.6531 159.964 10.6315C157.736 10.6029 156.054 11.6469 155.351 13.7677C154.747 15.5912 154.729 17.4904 155.379 19.3079C156.284 21.8422 158.728 22.8959 161.706 22.1511C164.106 21.5511 164.136 21.506 163.999 18.602C163.09 18.602 162.169 18.6163 161.248 18.5977C160.425 18.5811 159.656 18.424 159.668 17.3645C159.679 16.3686 160.365 16.071 161.219 16.0572C162.501 16.0365 163.784 16.0228 165.065 16.0571C166.604 16.0983 167.127 16.6506 167.141 18.1668C167.149 19.1071 167.097 20.0501 167.153 20.9871C167.213 21.9869 166.872 22.7347 165.933 23.2932Z" fill="#242D58"/>
<path d="M116.159 13.3185C115.631 13.8125 115.169 14.2444 114.647 14.7327C116.062 16.7758 117.419 18.7347 118.775 20.6949C119.091 21.1516 119.42 21.6008 119.709 22.0742C120.433 23.2621 120.393 24.1984 119.622 24.7012C118.743 25.2742 117.451 24.9296 116.748 23.8639C115.456 21.9028 114.204 19.9148 112.933 17.9395C112.752 17.6589 112.56 17.3861 112.315 17.0237C111.528 17.7655 110.75 18.4282 110.068 19.1774C109.816 19.4546 109.698 19.9301 109.674 20.3244C109.619 21.2619 109.689 22.2065 109.647 23.1454C109.602 24.1522 109.141 24.878 108.046 24.9469C107.036 25.0105 106.332 24.2895 106.326 23.1447C106.305 18.7396 106.303 14.3343 106.324 9.92929C106.329 8.70174 106.952 8.02937 107.962 8.06913C109.129 8.11508 109.629 8.84579 109.649 9.91878C109.682 11.7021 109.658 13.4864 109.658 15.5017C110.034 15.1999 110.259 15.0553 110.44 14.868C112.282 12.9624 114.115 11.0477 115.957 9.14156C116.222 8.86665 116.491 8.57677 116.809 8.37429C117.585 7.88093 118.397 7.89318 119.019 8.5876C119.622 9.26166 119.483 10.0543 118.897 10.6731C118.047 11.5723 117.12 12.3988 116.159 13.3185Z" fill="#232C58"/>
<path d="M59.4154 23.1917C58.2172 21.8265 57.8945 20.2381 57.8629 18.5989C57.8093 15.8205 57.8426 13.0403 57.8504 10.2609C57.8546 8.7637 58.4331 8.03676 59.5656 8.06345C60.6387 8.08877 61.1723 8.77589 61.181 10.232C61.197 12.9258 61.1769 15.6198 61.1899 18.3136C61.205 21.4291 62.8087 22.7506 65.8767 22.1831C67.2422 21.9305 67.9924 21.0015 68.0917 19.7089C68.255 17.5836 68.2606 15.4457 68.3113 13.3126C68.3407 12.0732 68.3008 10.832 68.3445 9.59339C68.3756 8.71181 68.8525 8.13786 69.7638 8.07444C70.6939 8.00971 71.34 8.42403 71.5147 9.38412C71.598 9.8423 71.6342 10.3151 71.6344 10.7813C71.6352 13.4323 71.6817 16.0853 71.5933 18.7337C71.4584 22.7766 69.5167 24.7367 65.4665 24.922C63.3151 25.0204 61.1724 24.895 59.4154 23.1917Z" fill="#242C58"/>
<path d="M95.2783 22.1584C98.4557 22.4153 99.2064 21.9864 100.511 19.1095C100.891 18.2708 101.465 17.8993 102.328 18.1367C103.159 18.3651 103.388 19.0265 103.329 19.8383C103.166 22.0785 100.892 24.3938 98.4447 24.7923C91.4549 25.9302 86.9898 20.2368 89.3317 13.1409C90.2413 10.3845 92.1811 8.73604 95.0293 8.22189C97.7633 7.72836 100.258 8.26568 102.14 10.4205C102.715 11.0783 103.062 12.049 103.2 12.9258C103.27 13.3676 102.733 14.195 102.297 14.3443C101.865 14.4923 101.163 14.089 100.682 13.7712C100.359 13.5578 100.224 13.067 99.9921 12.709C98.1981 9.94454 94.5301 9.98104 93.0092 12.8916C91.7565 15.2888 91.7647 17.8722 93.0124 20.2767C93.4187 21.0595 94.436 21.5252 95.2783 22.1584Z" fill="#242C58"/>
<path d="M139.705 20.695C139.247 21.6858 138.757 22.6634 138.341 23.6711C137.923 24.6814 137.282 25.262 136.176 24.8088C135.072 24.3565 135.011 23.4401 135.396 22.461C137.061 18.2163 138.742 13.9778 140.417 9.73723C140.831 8.69061 141.526 8.06132 142.724 8.06348C143.924 8.06564 144.624 8.71828 145.04 9.74552C146.719 13.8931 148.386 18.0458 150.05 22.1999C150.176 22.5139 150.4 22.9233 150.296 23.1675C150.039 23.7688 149.738 24.4891 149.232 24.8123C148.56 25.2418 147.787 24.9339 147.422 24.1613C146.932 23.123 146.525 22.045 146.109 20.8586C146.136 20.688 146.137 20.6427 146.137 20.5974C146.094 20.651 146.052 20.7046 146.009 20.7582C146.009 20.7582 145.929 20.7835 145.83 20.6692C143.722 20.6016 141.713 20.6483 139.705 20.695ZM144.059 15.4206C143.634 14.2661 143.208 13.1115 142.669 11.6476C141.803 14.0786 141.066 16.1468 140.299 18.3008C141.978 18.3008 143.463 18.3008 145.09 18.3008C144.754 17.3523 144.444 16.4795 144.059 15.4206Z" fill="#232C58"/>
<path d="M174.356 22.0238C176.588 22.0098 178.821 21.9958 181.219 22.0723C181.686 22.641 181.988 23.1192 182.289 23.5974C181.825 23.8238 181.364 24.2359 180.895 24.2461C178.075 24.3075 175.252 24.3025 172.432 24.263C171.397 24.2485 170.542 23.757 170.527 22.6153C170.478 18.8318 170.439 15.0455 170.538 11.264C170.593 9.13785 171.287 8.6232 173.427 8.62005C175.607 8.61684 177.788 8.57941 179.966 8.64451C180.589 8.66315 181.204 8.98579 181.823 9.16903C181.644 9.73304 181.464 10.2971 181.285 10.8611C178.878 10.8775 176.471 10.8939 173.878 10.8383C172.891 11.3293 172.783 13.6452 173.516 14.5444C173.516 14.5444 173.573 14.6265 173.586 14.6653C173.599 14.704 173.588 14.6744 173.588 14.6744C173.932 14.7299 174.277 14.7853 174.776 14.8909C174.93 14.941 175.031 14.9543 175.031 14.9543L175.11 14.884C177.103 14.9202 179.097 14.9565 181.188 15.1446C181.251 16.919 181.095 17.0841 179.536 17.0893C177.787 17.0951 176.036 17.0503 174.29 17.1211C173.884 17.1375 173.176 17.503 173.152 17.7594C173.032 19.0274 173.076 20.3133 173.118 21.5911C173.122 21.7374 173.476 21.8722 173.668 22.0123C173.668 22.0123 173.749 21.9882 173.803 22.0792C174.023 22.1215 174.19 22.0727 174.356 22.0238Z" fill="#232C58"/>
<path d="M131.489 8.48828C131.639 8.49524 131.788 8.50221 132.058 8.56689C132.225 8.62388 132.269 8.63324 132.31 8.65267C132.427 8.66703 132.543 8.68138 132.75 8.84234C133.429 9.37174 134.016 9.75453 134.603 10.1373C134.603 10.1373 134.577 10.1483 134.585 10.2215C134.702 10.401 134.811 10.5072 134.92 10.6135C134.92 10.6135 134.886 10.6224 134.871 10.7188C134.953 11.4832 135.033 12.1541 135.149 12.8184C135.49 14.7522 134.002 17.0728 132.127 17.349C130.463 17.5941 128.78 17.7608 127.1 17.8308C126.116 17.8718 125.837 18.3332 125.84 19.1815C125.843 20.4188 125.819 21.6566 125.847 22.8933C125.866 23.7669 125.29 24.1954 124.614 24.1984C124.284 24.1999 123.859 23.5641 123.65 23.133C123.477 22.7788 123.527 22.3004 123.534 21.878C123.607 17.5373 123.692 13.1968 123.774 8.85631C123.774 8.85631 123.784 8.87469 123.895 8.87353C125.69 8.86106 127.376 8.88464 129.058 8.82344C129.871 8.79385 130.679 8.605 131.489 8.48828ZM126.422 13.3666C126.422 14.1559 126.422 14.9452 126.422 15.9215C127.99 15.7816 129.354 15.7569 130.678 15.5112C131.77 15.3085 132.278 14.451 132.266 13.3375C132.255 12.2615 131.884 11.3286 130.728 11.1522C129.337 10.9398 127.916 10.9215 126.423 10.8129C126.423 11.767 126.423 12.4429 126.422 13.3666Z" fill="#212A58"/>
<path d="M82.6356 8.92539C83.171 8.07328 83.9627 7.77107 84.6578 8.20487C85.1749 8.52754 85.6967 9.312 85.7081 9.90061C85.793 14.2962 85.7626 18.6943 85.7404 23.0914C85.7353 24.0823 85.3382 24.868 84.2094 24.9381C83.1941 25.001 82.48 24.4501 82.4777 23.4669C82.4665 18.6484 82.5397 13.8297 82.6356 8.92539Z" fill="#262F5B"/>
<path d="M78.614 11.4605C78.6143 15.3052 78.6564 19.0251 78.577 22.7423C78.5625 23.4223 78.239 24.3416 77.7354 24.7148C76.6289 25.5349 75.3299 24.6006 75.3073 23.0335C75.2715 20.5547 75.2975 18.075 75.2968 15.5957C75.2963 13.8004 75.2868 12.0049 75.2963 10.2096C75.3038 8.79447 75.8655 8.075 76.9351 8.06817C78.033 8.06115 78.5652 8.72804 78.6109 10.1807C78.623 10.565 78.6135 10.9501 78.614 11.4605Z" fill="#232C58"/>
<path d="M123.688 8.89111C123.692 13.1966 123.607 17.537 123.534 21.8777C123.527 22.3001 123.477 22.7785 123.65 23.1327C123.859 23.5638 124.284 24.1996 124.614 24.1982C125.29 24.1951 125.866 23.7666 125.847 22.893C125.819 21.6563 125.843 20.4185 125.84 19.1812C125.837 18.3329 126.116 17.8715 127.1 17.8305C128.78 17.7605 130.463 17.5938 132.127 17.3487C134.002 17.0725 135.49 14.7519 135.149 12.8181C135.032 12.1538 134.953 11.4829 134.879 10.703C136.833 13.675 135.261 17.4709 131.706 18.0823C130.041 18.3686 128.323 18.3467 126.434 18.478C126.434 19.9344 126.445 21.4494 126.431 22.9642C126.418 24.3265 125.887 24.9805 124.816 24.9409C123.618 24.8965 123.203 24.1296 123.201 23.0547C123.194 18.7835 123.185 14.5122 123.214 10.2412C123.217 9.80199 123.467 9.36449 123.688 8.89111Z" fill="#242D58"/>
<path d="M181.374 10.8778C181.464 10.2974 181.643 9.73334 181.822 9.16932C181.204 8.98609 180.589 8.66345 179.966 8.6448C177.788 8.5797 175.607 8.61713 173.427 8.62034C171.287 8.62349 170.593 9.13814 170.538 11.2643C170.439 15.0458 170.478 18.8321 170.527 22.6155C170.541 23.7573 171.397 24.2488 172.432 24.2633C175.252 24.3028 178.075 24.3078 180.895 24.2464C181.364 24.2362 181.825 23.8241 182.289 23.5977C181.988 23.1195 181.686 22.6413 181.338 22.0889C182.205 22.0584 182.896 22.3844 182.841 23.436C182.785 24.5127 181.968 24.7141 181.113 24.721C178.168 24.7451 175.223 24.7559 172.278 24.7267C170.897 24.7129 170.254 24.075 170.242 22.6535C170.206 18.5991 170.201 14.544 170.237 10.4896C170.251 8.83209 170.774 8.34497 172.402 8.3315C175.261 8.30784 178.123 8.27373 180.979 8.36918C181.517 8.38716 182.292 8.87303 182.506 9.34679C182.859 10.1306 182.295 10.6956 181.374 10.8778Z" fill="#262F5B"/>
<path d="M173.632 21.8963C173.476 21.8726 173.122 21.7378 173.118 21.5915C173.076 20.3137 173.032 19.0278 173.152 17.7598C173.176 17.5034 173.885 17.138 174.29 17.1215C176.036 17.0507 177.787 17.0955 179.537 17.0897C181.095 17.0845 181.251 16.9194 181.286 15.1917C181.471 15.5847 181.886 16.146 181.772 16.5619C181.673 16.9204 180.979 17.3279 180.536 17.3433C178.281 17.4216 176.022 17.3794 173.597 17.3794C173.597 18.9127 173.597 20.3463 173.632 21.8963Z" fill="#262F5B"/>
<path d="M131.386 8.44949C130.679 8.60478 129.872 8.79362 129.058 8.82321C127.376 8.88441 125.69 8.86083 123.886 8.86812C124.262 8.68537 124.756 8.36174 125.255 8.35334C127.263 8.31956 129.273 8.38327 131.386 8.44949Z" fill="#242D58"/>
<path d="M173.541 14.4629C172.784 13.6455 172.891 11.3296 173.757 10.8223C173.737 12.0456 173.652 13.2133 173.541 14.4629Z" fill="#262F5B"/>
<path d="M139.822 20.7197C141.713 20.6477 143.721 20.601 145.801 20.6374C143.894 20.7287 141.917 20.7368 139.822 20.7197Z" fill="#212A58"/>
<path d="M134.584 10.0524C134.016 9.75488 133.429 9.3721 132.816 8.90381C133.381 9.20126 133.973 9.5842 134.584 10.0524Z" fill="#242D58"/>
<path d="M174.268 22.0038C174.19 22.0731 174.023 22.1219 173.839 22.1013C173.941 22.0157 174.06 21.9995 174.268 22.0038Z" fill="#262F5B"/>
<path d="M132.305 8.62324C132.269 8.63369 132.225 8.62434 132.155 8.62643C132.177 8.5744 132.232 8.5629 132.305 8.62324Z" fill="#242D58"/>
<path d="M134.904 10.5375C134.811 10.5073 134.702 10.401 134.593 10.2097C134.691 10.2369 134.79 10.3492 134.904 10.5375Z" fill="#242D58"/>
<path d="M175.054 14.8611C175.11 14.8843 175.031 14.9547 175.031 14.9547C175.031 14.9547 174.93 14.9413 174.908 14.9125C174.885 14.8837 174.998 14.8379 175.054 14.8611Z" fill="#262F5B"/>
<path d="M173.589 14.6839C173.588 14.6738 173.6 14.7045 173.604 14.713C173.607 14.7213 173.59 14.6939 173.589 14.6839Z" fill="#262F5B"/>
<path d="M50.2584 12.0746C52.1134 14.692 52.1412 18.3271 50.3532 20.6771C49.467 20.2293 48.6027 19.6788 47.6596 19.3672C47.2276 19.2244 46.6403 19.5513 46.1235 19.6652C46.3718 20.0838 46.5417 20.5907 46.8883 20.8986C47.3204 21.2826 47.8982 21.5027 48.4416 21.8096C46.8076 22.8404 44.2152 21.9958 43.248 20.112C42.2022 18.0751 42.0797 15.9256 42.8528 13.785C44.0392 10.5001 47.482 9.69011 50.2584 12.0746Z" fill="#F8FAFB"/>
<path d="M144.097 15.513C144.444 16.4789 144.754 17.3516 145.09 18.3002C143.463 18.3002 141.978 18.3002 140.299 18.3002C141.066 16.1462 141.803 14.0779 142.669 11.647C143.208 13.1109 143.634 14.2654 144.097 15.513Z" fill="#F5F7F8"/>
<path d="M146.027 20.7603C146.051 20.7042 146.094 20.6505 146.137 20.5969C146.136 20.6422 146.136 20.6875 146.093 20.7656C146.05 20.7984 146.045 20.7627 146.027 20.7603Z" fill="#212A58"/>
<path d="M126.423 13.2423C126.423 12.4425 126.423 11.7666 126.423 10.8125C127.916 10.921 129.337 10.9394 130.729 11.1518C131.884 11.3282 132.255 12.261 132.266 13.3371C132.278 14.4506 131.77 15.3081 130.678 15.5108C129.354 15.7565 127.99 15.7811 126.422 15.9211C126.422 14.9448 126.422 14.1555 126.423 13.2423Z" fill="#F5F7F8"/>
</svg>
